<svg width="25" height="25" viewBox="0 0 25 25" fill="none" xmlns="http://www.w3.org/2000/svg">
<path d="M8.99899 16.6381C8.31815 16.6381 7.74421 16.4016 7.27716 15.9285C6.81012 15.4554 6.57659 14.8763 6.57659 14.1911C6.57659 13.506 6.81164 12.9284 7.28174 12.4584C7.75184 11.9884 8.32731 11.7534 9.00815 11.7534C9.68898 11.7534 10.2629 11.9899 10.73 12.463C11.197 12.9361 11.4305 13.5152 11.4305 14.2004C11.4305 14.8855 11.1955 15.4631 10.7254 15.9331C10.2553 16.4031 9.67983 16.6381 8.99899 16.6381ZM4.67505 22.4292C4.27472 22.4292 3.92444 22.2782 3.62419 21.976C3.32395 21.6739 3.17383 21.3214 3.17383 20.9185V5.3076C3.17383 4.90474 3.32395 4.55223 3.62419 4.25009C3.92444 3.94794 4.27472 3.79687 4.67505 3.79687H6.30137V2.28613H7.92769V3.79687H16.4346V2.28613H18.0609V3.79687H19.6873C20.0876 3.79687 20.4379 3.94794 20.7381 4.25009C21.0384 4.55223 21.1885 4.90474 21.1885 5.3076V20.9185C21.1885 21.3214 21.0384 21.6739 20.7381 21.976C20.4379 22.2782 20.0876 22.4292 19.6873 22.4292H4.67505ZM4.67505 20.9185H19.6873V10.0916H4.67505V20.9185ZM4.67505 8.58086H19.6873V5.3076H4.67505V8.58086Z" fill="black"/>
</svg>
